<svg xmlns="http://www.w3.org/2000/svg" xmlns:xlink="http://www.w3.org/1999/xlink" version="1.1" style="" xml:space="preserve" width="511.999" height="511.999"><rect id="backgroundrect" width="100%" height="100%" x="0" y="0" fill="none" stroke="none"/>
















<g class="currentLayer" style=""><title>Layer 1</title><g id="svg_1" class="" fill="#fcfcfc" fill-opacity="1" opacity="1" stroke-opacity="1" stroke="#f9f9f9">
	<g id="svg_2" fill="#fcfcfc" fill-opacity="1" opacity="1" stroke="#f9f9f9">
		<path d="M508.874,477.33813696670535 L360.142,328.6061369667053 c28.21,-34.827 45.191,-79.103 45.191,-127.309 c0,-111.75 -90.917,-202.667 -202.667,-202.667 S0,89.54713696670532 0,201.29713696670532 s90.917,202.667 202.667,202.667 c48.206,0 92.482,-16.982 127.309,-45.191 l148.732,148.732 c4.167,4.165 10.919,4.165 15.086,0 l15.081,-15.082 C513.04,488.25713696670533 513.04,481.5031369667053 508.874,477.33813696670535 zM202.667,361.2971369667053 c-88.229,0 -160,-71.771 -160,-160 s71.771,-160 160,-160 s160,71.771 160,160 S290.896,361.2971369667053 202.667,361.2971369667053 z" id="svg_3" fill="#fcfcfc" fill-opacity="1" opacity="1" stroke="#f9f9f9"/>
	</g>
</g><g id="svg_4">
</g><g id="svg_5">
</g><g id="svg_6">
</g><g id="svg_7">
</g><g id="svg_8">
</g><g id="svg_9">
</g><g id="svg_10">
</g><g id="svg_11">
</g><g id="svg_12">
</g><g id="svg_13">
</g><g id="svg_14">
</g><g id="svg_15">
</g><g id="svg_16">
</g><g id="svg_17">
</g><g id="svg_18">
</g></g></svg>